<svg xmlns="http://www.w3.org/2000/svg" width="1200" height="630" viewBox="0 0 1200 630">
  <!-- Background -->
  <rect width="1200" height="630" fill="#ffffff"/>
  
  <!-- Top accent bar -->
  <rect width="1200" height="8" fill="#062b5f"/>
  
  <!-- Bottom accent bar -->
  <rect y="622" width="1200" height="8" fill="#b33459"/>
  
  <!-- Side decorative elements -->
  <rect x="0" y="8" width="6" height="614" fill="#062b5f" opacity="0.15"/>
  <rect x="1194" y="8" width="6" height="614" fill="#062b5f" opacity="0.15"/>
  
  <!-- Logo group, scaled and centered -->
  <g transform="translate(79.9, 31.5) scale(0.75)">
    <path d="M 175.56 480.09 C170.96,482.24 166.37,483.98 165.35,483.95 C162.61,483.86 155.19,480.66 146.56,475.84 C108.35,454.47 82.28,415.21 76.07,369.68 C74.91,361.18 74.77,320.04 75.89,316.03 C76.50,313.85 81.52,311.58 119.54,296.35 C143.17,286.88 163.45,279.11 164.60,279.07 C168.19,278.95 250.15,311.72 252.74,314.31 C254.79,316.37 255.65,348.96 254.05,364.50 C252.60,378.63 248.42,395.68 243.48,407.62 C230.46,439.08 204.91,466.33 175.56,480.09 ZM 154.59 473.58 C159.24,476.01 163.95,478.00 165.05,478.00 C168.04,478.00 180.33,471.54 190.50,464.62 C201.32,457.26 215.42,443.38 223.15,432.47 C230.00,422.81 237.79,407.40 241.44,396.28 C247.07,379.16 248.16,371.39 248.72,344.35 L 249.24 319.20 L 246.60 317.47 C243.23,315.27 167.23,285.00 165.06,285.00 C163.69,285.00 112.55,305.10 88.16,315.22 L 80.81 318.27 L 81.28 344.88 C81.79,374.01 82.38,378.20 88.61,396.95 C99.74,430.47 122.32,456.70 154.59,473.58 ZM 180.82 450.53 C168.78,456.85 158.85,456.33 146.36,448.70 C134.62,441.53 125.81,430.22 121.29,416.50 C118.97,409.45 118.65,406.84 118.60,394.50 C118.54,379.77 120.38,370.05 124.94,361.11 C126.21,358.63 126.54,356.89 125.94,355.94 C123.99,352.86 124.91,347.94 128.00,344.85 C129.65,343.20 131.00,341.03 131.00,340.03 C131.00,334.75 135.24,324.95 139.63,320.07 C145.61,313.42 150.93,310.40 159.20,308.97 C177.22,305.86 193.53,317.29 197.18,335.59 C198.02,339.82 199.16,342.26 201.18,344.15 C203.33,346.18 204.00,347.71 203.98,350.65 C203.98,352.77 203.56,355.15 203.06,355.93 C202.45,356.90 202.95,358.94 204.60,362.19 C210.77,374.37 213.03,396.76 209.57,411.47 C205.59,428.36 194.61,443.28 180.82,450.53 ZM 366.49 446.07 C360.69,448.39 359.51,448.47 328.75,448.80 L 297.00 449.13 L 297.00 325.00 L 325.39 325.00 C359.02,325.00 363.19,325.77 371.85,333.55 C378.44,339.48 381.02,346.06 380.96,356.79 C380.89,368.73 376.88,376.96 369.23,380.88 L 365.57 382.76 L 370.78 385.00 C384.74,391.01 391.23,408.02 386.05,425.06 C384.18,431.22 382.99,433.17 378.17,437.99 C374.25,441.91 370.62,444.42 366.49,446.07 ZM 574.13 450.56 C566.18,452.24 564.33,452.24 556.37,450.51 C548.82,448.87 544.88,446.93 538.75,441.83 L 534.00 437.88 L 534.00 449.00 L 513.00 449.00 L 513.00 319.00 L 535.00 319.00 L 535.00 367.23 L 539.08 363.55 C544.15,358.97 550.22,356.31 558.89,354.88 C581.48,351.15 602.44,365.38 608.47,388.54 C610.42,396.02 610.44,409.91 608.51,417.31 C603.96,434.76 591.41,446.90 574.13,450.56 ZM 460.27 450.53 C448.11,453.11 438.10,451.77 426.34,446.00 C410.25,438.10 401.00,422.68 401.00,403.74 C401.00,381.39 412.43,364.25 431.89,357.37 C440.06,354.49 454.64,354.12 463.07,356.59 C474.23,359.85 483.97,368.45 489.05,379.52 C493.42,389.05 495.27,402.52 493.02,408.43 L 492.05 411.00 L 423.14 411.00 L 423.95 413.81 C426.06,421.18 430.38,426.19 438.00,430.08 C441.48,431.86 444.21,432.39 450.00,432.43 C458.85,432.48 465.37,429.98 471.21,424.29 C474.51,421.07 475.10,420.83 476.71,422.08 C477.69,422.85 480.75,425.28 483.50,427.48 C486.25,429.67 488.70,431.60 488.94,431.76 C489.18,431.92 486.97,434.49 484.03,437.47 C477.48,444.11 469.25,448.63 460.27,450.53 ZM 159.50 449.60 C164.95,451.33 165.85,451.29 172.33,449.06 C191.25,442.55 204.36,423.58 206.59,399.46 C207.14,393.58 205.75,378.42 204.56,377.23 C204.36,377.03 201.79,378.23 198.85,379.89 C188.33,385.82 175.70,387.43 163.09,384.46 C153.00,382.08 145.76,377.63 137.47,368.71 L 130.11 360.79 L 128.55 364.54 C127.68,366.61 126.28,371.01 125.42,374.32 L 123.86 380.33 L 127.69 385.91 C129.80,388.98 134.45,393.69 138.02,396.37 C145.25,401.82 145.33,401.92 144.05,403.95 C142.68,406.12 139.03,403.90 130.13,395.50 L 122.70 388.50 L 123.27 398.50 C124.25,415.70 129.69,427.87 141.16,438.49 C147.37,444.23 152.62,447.42 159.50,449.60 ZM 720.81 448.80 C706.19,454.27 688.44,451.15 674.28,440.63 C671.96,438.91 670.05,437.27 670.03,436.98 C670.01,436.55 679.37,423.30 680.52,422.15 C680.70,421.96 682.93,423.23 685.46,424.97 C701.09,435.73 718.00,435.15 718.00,423.85 C718.00,418.95 713.83,415.54 702.25,410.98 C683.48,403.59 675.67,396.41 674.36,385.36 C672.90,373.04 681.29,360.05 692.93,356.61 C700.49,354.37 714.22,354.50 721.88,356.88 C727.55,358.65 737.00,363.46 737.00,364.59 C737.00,365.80 727.71,381.06 727.14,380.80 C726.79,380.63 723.46,378.97 719.75,377.11 C707.60,371.02 696.00,372.71 696.00,380.57 C696.00,385.44 698.83,387.92 709.00,391.95 C732.63,401.33 739.42,408.31 739.33,423.13 C739.26,434.81 732.26,444.52 720.81,448.80 ZM 155.32 375.36 C167.74,379.76 181.59,374.38 188.60,362.42 C190.45,359.27 191.84,358.00 193.44,358.00 C197.18,358.00 200.96,352.11 199.11,349.16 C198.65,348.42 197.20,347.29 195.89,346.63 C193.89,345.64 193.40,344.46 192.91,339.47 C191.08,320.91 170.53,306.30 159.77,315.92 C156.96,318.42 156.50,319.50 156.50,323.50 C156.50,327.50 156.96,328.58 159.77,331.08 C161.56,332.69 164.17,334.00 165.56,334.00 C168.25,334.00 173.00,330.00 173.00,327.75 C173.00,325.85 170.93,324.00 168.80,324.00 C167.47,324.00 167.00,324.78 167.00,327.00 C167.00,330.20 166.15,330.75 164.20,328.80 C162.51,327.11 162.71,323.98 164.65,321.83 C168.63,317.44 177.00,321.66 177.00,328.05 C177.00,330.30 176.03,332.17 173.60,334.60 C170.80,337.40 169.45,338.00 165.97,338.00 C160.90,338.00 155.56,334.99 153.48,330.95 C151.78,327.68 151.55,321.32 152.98,317.57 C154.23,314.26 153.22,314.33 148.28,317.91 C141.14,323.09 137.09,330.40 136.15,339.84 C135.56,345.79 135.26,346.47 133.00,347.00 C130.98,347.47 130.44,348.28 130.20,351.19 C129.96,354.03 130.38,355.15 132.17,356.40 C133.42,357.28 135.24,358.00 136.20,358.00 C137.24,358.00 138.77,359.60 139.94,361.88 C142.50,366.89 150.01,373.48 155.32,375.36 ZM 552.91 430.51 C558.99,432.46 568.41,431.85 573.67,429.17 C586.85,422.44 591.91,403.56 584.55,388.52 C574.79,368.57 545.31,370.00 536.22,390.86 C533.66,396.73 534.01,409.32 536.91,415.79 C539.79,422.22 546.59,428.48 552.91,430.51 ZM 651.00 356.00 L 651.00 449.00 L 630.00 449.00 L 630.00 356.00 ZM 319.00 396.00 L 319.00 429.00 L 335.79 429.00 C351.21,429.00 352.94,428.82 357.03,426.75 C363.09,423.69 366.00,419.10 366.00,412.59 C366.00,405.77 363.40,401.14 357.99,398.27 C353.99,396.16 352.46,396.00 336.34,396.00 ZM 163.04 431.13 C158.69,434.35 153.15,434.61 149.01,431.81 C141.71,426.84 141.13,419.01 147.65,413.05 C150.78,410.17 151.37,409.03 151.12,406.22 C150.55,399.56 156.92,396.65 161.42,401.51 L 163.75 404.02 L 165.04 400.89 C166.49,397.41 171.29,394.01 174.78,394.00 C181.74,393.99 187.00,399.40 187.00,406.55 C187.00,411.16 181.68,417.00 177.48,417.00 C175.12,417.00 174.86,417.29 175.49,419.25 C177.29,424.87 177.18,427.53 175.07,429.43 C173.27,431.07 172.48,431.17 169.37,430.22 C166.25,429.27 165.39,429.39 163.04,431.13 ZM 319.75 375.42 C320.16,375.84 326.58,376.02 334.00,375.84 C345.23,375.56 348.17,375.15 351.50,373.44 C356.98,370.62 360.35,364.20 359.56,358.06 C358.23,347.75 354.53,346.00 334.03,346.00 L 319.00 346.00 L 319.00 360.33 C319.00,368.22 319.34,375.01 319.75,375.42 ZM 424.00 392.96 C424.00,394.96 424.51,395.00 448.00,395.00 C449.27,395.00 450.48,395.00 451.64,395.00 C465.96,395.01 471.17,395.02 472.05,393.06 C472.55,391.95 471.65,390.20 470.23,387.44 C470.03,387.05 469.82,386.65 469.60,386.22 C465.13,377.43 459.20,374.00 448.50,374.00 C440.84,374.00 435.84,375.82 431.16,380.30 C427.39,383.91 424.00,389.91 424.00,392.96 ZM 648.39 341.91 C643.31,345.91 633.82,343.86 629.62,337.86 C628.61,336.43 628.00,333.51 628.00,330.18 C628.00,325.42 628.38,324.42 631.32,321.48 C635.41,317.39 640.61,316.20 645.78,318.17 C655.38,321.82 656.85,335.25 648.39,341.91 ZM 171.58 381.12 C172.35,382.38 176.48,382.18 184.36,380.51 C191.39,379.02 198.12,375.73 201.28,372.25 C202.98,370.37 202.97,370.09 201.03,365.57 C199.27,361.46 198.73,360.95 196.76,361.55 C195.52,361.94 194.46,362.31 194.41,362.37 C194.36,362.44 192.87,364.66 191.09,367.29 C187.52,372.57 179.29,378.59 174.27,379.60 C172.49,379.95 171.28,380.64 171.58,381.12 ZM 164.42 413.85 C166.20,417.28 168.06,417.84 170.00,415.50 C170.68,414.67 172.79,414.00 174.67,414.00 C181.98,414.00 185.65,405.56 180.55,400.45 C176.10,396.01 170.91,397.69 167.87,404.55 C166.81,406.97 165.23,409.33 164.36,409.82 C162.94,410.61 162.94,410.99 164.42,413.85 ZM 167.42 425.11 C171.02,427.31 172.66,427.49 173.27,425.75 C174.07,423.45 172.81,422.00 170.01,422.00 C168.05,422.00 166.20,420.85 163.72,418.11 C159.50,413.44 158.38,410.45 160.09,408.40 C161.11,407.16 160.95,406.50 159.18,404.73 C157.50,403.06 156.75,402.85 155.82,403.78 C154.89,404.71 155.00,406.15 156.29,410.24 C158.14,416.11 162.76,422.27 167.42,425.11 ZM 149.65 427.55 C153.04,430.69 157.97,430.82 160.60,427.83 C162.47,425.69 162.47,425.67 160.50,426.47 C155.55,428.48 153.33,428.24 151.13,425.44 C148.70,422.35 149.02,419.82 152.29,416.25 C155.11,413.17 152.56,413.35 149.45,416.45 C146.11,419.80 146.19,424.35 149.65,427.55 ZM 181.00 357.00 C178.41,359.59 174.96,359.54 171.56,356.87 C168.03,354.10 169.55,352.16 173.85,353.94 C176.03,354.84 177.36,354.88 178.84,354.08 C183.15,351.78 184.45,353.55 181.00,357.00 ZM 169.44 370.87 C167.95,372.04 165.78,372.98 164.62,372.96 C162.06,372.91 157.00,370.30 157.00,369.03 C157.00,367.46 159.12,366.72 160.29,367.89 C161.71,369.31 165.54,369.32 168.17,367.91 C171.57,366.09 172.56,368.41 169.44,370.87 ZM 156.78 357.44 C155.56,358.30 153.87,358.98 153.03,358.96 C150.48,358.89 146.00,356.03 146.00,354.47 C146.00,352.67 148.34,352.57 151.01,354.24 C152.59,355.23 153.41,355.23 154.99,354.24 C156.08,353.56 157.43,353.00 157.99,353.00 C159.82,353.00 159.04,355.86 156.78,357.44 ZM 154.05 423.56 C155.19,424.93 155.49,424.93 156.83,423.60 C158.06,422.37 158.10,421.82 157.04,420.55 C156.33,419.70 155.35,419.00 154.85,419.00 C153.25,419.00 152.73,421.97 154.05,423.56 Z" fill="rgb(6,43,95)"/>
    <path d="M 810.77 483.49 C793.11,487.65 772.69,482.77 760.10,471.38 L 755.55 467.27 L 759.78 461.78 C762.11,458.77 764.90,455.49 765.99,454.51 C767.90,452.78 768.08,452.84 771.94,456.33 C783.63,466.89 801.46,469.59 812.27,462.44 C818.48,458.33 821.41,452.22 822.66,440.75 C823.30,434.84 822.46,433.53 819.95,436.56 C819.24,437.41 816.72,439.25 814.34,440.64 C795.51,451.68 768.52,444.40 757.30,425.25 C749.35,411.68 748.84,391.03 756.12,376.76 C759.80,369.55 768.25,361.65 776.27,357.91 C783.12,354.72 784.09,354.54 794.50,354.57 C806.75,354.59 811.62,356.10 818.23,361.90 C820.18,363.61 822.04,365.00 822.38,365.00 C822.72,365.00 823.00,362.98 823.00,360.50 L 823.00 356.00 L 844.14 356.00 L 843.73 401.25 C843.39,439.27 843.06,447.50 841.67,452.78 C839.37,461.49 836.57,466.69 831.15,472.33 C825.67,478.03 819.41,481.45 810.77,483.49 ZM 1062.50 450.64 C1048.43,454.39 1032.32,450.15 1021.40,439.82 C1011.02,430.00 1006.88,419.68 1006.81,403.41 C1006.67,372.59 1026.28,352.40 1054.50,354.29 C1064.17,354.94 1069.93,356.90 1075.96,361.60 L 1080.50 365.14 L 1080.77 341.07 L 1081.04 317.00 L 1103.00 317.00 L 1103.00 449.00 L 1082.00 449.00 L 1082.00 438.77 L 1078.06 442.33 C1073.27,446.66 1069.09,448.89 1062.50,450.64 ZM 1179.12 450.56 C1157.37,455.17 1134.50,445.68 1125.16,428.16 C1117.20,413.21 1116.98,393.84 1124.61,378.78 C1128.40,371.31 1137.56,362.57 1145.52,358.84 C1158.56,352.74 1175.57,352.63 1187.75,358.57 C1195.03,362.12 1203.83,370.87 1207.32,378.02 C1210.72,384.99 1213.18,396.63 1212.80,403.90 L 1212.50 409.50 L 1176.19 409.76 L 1139.87 410.03 L 1140.53 412.26 C1143.33,421.83 1150.02,429.04 1158.39,431.52 C1169.71,434.89 1181.90,432.36 1190.37,424.90 C1193.37,422.27 1195.40,421.15 1196.24,421.69 C1201.38,424.93 1208.00,430.40 1208.00,431.40 C1208.00,433.76 1197.61,443.17 1191.72,446.14 C1188.43,447.80 1182.76,449.79 1179.12,450.56 ZM 913.13 449.51 C896.94,455.16 877.31,449.73 869.09,437.33 C863.33,428.63 863.00,426.02 863.00,389.32 L 863.00 356.00 L 884.00 356.00 L 884.00 416.64 L 886.75 422.07 C890.17,428.82 895.61,432.00 903.74,432.00 C912.82,432.00 919.16,428.28 923.35,420.50 C925.39,416.70 925.52,414.99 925.82,386.25 L 926.13 356.00 L 947.00 356.00 L 947.00 449.00 L 927.00 449.00 L 927.00 445.00 C927.00,442.80 926.73,441.00 926.41,441.00 C926.08,441.00 924.01,442.55 921.79,444.45 C919.58,446.34 915.68,448.62 913.13,449.51 ZM 1250.00 420.63 L 1250.00 449.00 L 1229.00 449.00 L 1229.00 356.00 L 1249.00 356.00 L 1249.00 360.50 C1249.00,362.98 1249.37,365.00 1249.81,365.00 C1250.26,365.00 1251.89,363.68 1253.43,362.07 C1254.97,360.46 1258.54,358.10 1261.37,356.82 C1265.74,354.85 1268.13,354.50 1277.50,354.50 C1287.29,354.50 1289.10,354.79 1294.00,357.11 C1299.91,359.92 1306.23,365.66 1308.75,370.50 C1312.79,378.27 1313.27,382.67 1313.73,416.25 L 1314.18 449.00 L 1293.18 449.00 L 1292.81 419.25 C1292.49,393.48 1292.20,388.96 1290.67,385.50 C1288.25,380.04 1284.49,376.35 1279.32,374.38 C1271.39,371.35 1259.61,374.52 1255.06,380.91 C1250.39,387.48 1250.00,390.52 1250.00,420.63 ZM 1044.00 429.92 C1050.69,432.95 1060.12,432.74 1066.78,429.42 C1076.77,424.44 1081.40,416.11 1081.44,403.00 C1081.48,392.36 1078.85,385.80 1072.20,379.94 C1063.62,372.40 1051.92,371.20 1041.59,376.82 C1032.21,381.92 1027.44,391.93 1028.21,404.87 C1028.95,417.08 1034.26,425.51 1044.00,429.92 ZM 787.59 424.99 C800.28,429.95 813.15,425.46 819.49,413.87 C821.99,409.29 822.43,407.39 822.45,401.00 C822.47,391.87 820.88,386.98 816.20,381.80 C810.91,375.95 805.77,373.64 797.93,373.61 C781.19,373.55 770.81,385.58 772.24,403.40 C773.09,413.97 778.36,421.39 787.59,424.99 ZM 990.00 356.00 L 990.00 449.00 L 969.00 449.00 L 969.00 356.00 ZM 1141.40 392.59 C1141.84,393.75 1146.28,394.00 1166.47,394.00 L 1191.00 394.00 L 1190.99 391.75 C1190.98,388.10 1185.26,379.20 1181.23,376.56 C1173.10,371.24 1163.20,370.84 1154.07,375.47 C1147.57,378.76 1140.01,388.98 1141.40,392.59 ZM 988.66 338.68 C978.76,349.47 961.59,337.49 967.31,323.79 C970.30,316.66 979.58,313.86 986.00,318.17 C993.64,323.31 994.76,332.01 988.66,338.68 Z" fill="rgb(179,52,89)"/>
  </g>
  
  <!-- Tagline below logo -->
  <text x="600" y="595" text-anchor="middle" font-family="Georgia, serif" font-size="22" fill="#062b5f" opacity="0.6" letter-spacing="2">bebisguiden.se</text>
</svg>